<?xml version="1.0" standalone="no"?><svg xmlns="http://www.w3.org/2000/svg" viewBox="0 0 1440 320"><path fill="#00cba9" fill-opacity="1" d="M0,256L34.3,261.3C68.6,267,137,277,206,250.7C274.3,224,343,160,411,144C480,128,549,160,617,170.7C685.7,181,754,171,823,186.7C891.4,203,960,245,1029,261.3C1097.1,277,1166,267,1234,218.7C1302.9,171,1371,85,1406,42.7L1440,0L1440,320L1405.7,320C1371.4,320,1303,320,1234,320C1165.7,320,1097,320,1029,320C960,320,891,320,823,320C754.3,320,686,320,617,320C548.6,320,480,320,411,320C342.9,320,274,320,206,320C137.1,320,69,320,34,320L0,320Z"></path></svg>